<?xml version="1.0" encoding="UTF-8"?>
<svg version="1.1" xmlns="http://www.w3.org/2000/svg" width="61" height="49">
<path d="M0 0 C20.13 0 40.26 0 61 0 C61 16.17 61 32.34 61 49 C40.87 49 20.74 49 0 49 C0 32.83 0 16.66 0 0 Z " fill="#FAFAFA" transform="translate(0,0)"/>
<path d="M0 0 C2.83819372 1.363446 5.47192575 2.88322435 8.109375 4.6015625 C8.86347656 5.09140625 9.61757813 5.58125 10.39453125 6.0859375 C11.17183594 6.59382813 11.94914062 7.10171875 12.75 7.625 C13.93916016 8.3984375 13.93916016 8.3984375 15.15234375 9.1875 C17.10279022 10.45646517 19.05195456 11.72735322 21 13 C19.83174046 16.50477863 19.03282856 16.93472161 16.03515625 18.91796875 C15.23529297 19.44970703 14.43542969 19.98144531 13.61132812 20.52929688 C12.77021484 21.07650391 11.92910156 21.62371094 11.0625 22.1875 C10.22525391 22.74630859 9.38800781 23.30511719 8.52539062 23.88085938 C2.27375229 28 2.27375229 28 0 28 C-0.66 26.35 -1.32 24.7 -2 23 C-0.72992786 22.0406581 0.54108919 21.08256706 1.8125 20.125 C2.87404297 19.32449219 2.87404297 19.32449219 3.95703125 18.5078125 C5.60456297 17.29185219 7.29624211 16.13583859 9 15 C9 14.34 9 13.68 9 13 C6.79428396 11.41152137 4.48782685 10.04182517 2.1640625 8.6328125 C-0.12411569 6.90635314 -0.96204306 5.63481377 -2 3 C-1.34 2.01 -0.68 1.02 0 0 Z " fill="#0F0F0F" transform="translate(13,10)"/>
<path d="M0 0 C6.72505349 4.24872538 13.40375316 8.55364102 20 13 C18.6660303 17.00190911 16.06058099 18.28057863 12.6875 20.5 C8.14045922 23.51799751 8.14045922 23.51799751 3.76953125 26.78125 C2 28 2 28 -1 28 C-1.66 26.35 -2.32 24.7 -3 23 C-1.96939453 22.29423828 -1.96939453 22.29423828 -0.91796875 21.57421875 C-0.01691406 20.95160156 0.88414063 20.32898438 1.8125 19.6875 C3.15248047 18.76517578 3.15248047 18.76517578 4.51953125 17.82421875 C6.56100746 16.32284963 8.28462787 14.85214599 10 13 C9.34 12.79375 8.68 12.5875 8 12.375 C3.88393737 10.48847129 0.5412297 7.79432021 -3 5 C-1.125 1.125 -1.125 1.125 0 0 Z " fill="#101010" transform="translate(33,10)"/>
<path d="M0 0 C0.33 0.66 0.66 1.32 1 2 C0.67 2.99 0.34 3.98 0 5 C-1.65 5 -3.3 5 -5 5 C-4.67 6.98 -4.34 8.96 -4 11 C-7.625 14 -7.625 14 -11 14 C-11.66 12.35 -12.32 10.7 -13 9 C-11.39612733 7.8745809 -9.79189084 6.74968028 -8.1875 5.625 C-7.29417969 4.99851562 -6.40085937 4.37203125 -5.48046875 3.7265625 C-3.66732122 2.46449761 -1.83811789 1.22541192 0 0 Z " fill="#141414" transform="translate(43,24)"/>
<path d="M0 0 C0.33 0.66 0.66 1.32 1 2 C0.67 2.99 0.34 3.98 0 5 C-1.98 5 -3.96 5 -6 5 C-4.06745228 2.9754262 -2.36841312 1.57894208 0 0 Z " fill="#1D1D1D" transform="translate(43,24)"/>
</svg>
